IKResults
version=1
nRows=9
nColumns=63
inDegrees=yes

Units are S.I. units (second, meters, Newtons, ...)
If the header above contains a line with 'inDegrees', this indicates whether rotational values are in degrees (yes) or radians (no).

endheader
time	pelvis_tilt	pelvis_list	pelvis_rotation	pelvis_tx	pelvis_ty	pelvis_tz	hip_flexion_r	hip_adduction_r	hip_rotation_r	knee_angle_r	knee_angle_r_beta	ankle_angle_r	subtalar_angle_r	mtp_angle_r	hip_flexion_l	hip_adduction_l	hip_rotation_l	knee_angle_l	knee_angle_l_beta	ankle_angle_l	subtalar_angle_l	mtp_angle_l	L5_S1_Flex_Ext	L5_S1_Lat_Bending	L5_S1_axial_rotation	L4_L5_Flex_Ext	L4_L5_Lat_Bending	L4_L5_axial_rotation	L3_L4_Flex_Ext	L3_L4_Lat_Bending	L3_L4_axial_rotation	L2_L3_Flex_Ext	L2_L3_Lat_Bending	L2_L3_axial_rotation	L1_L2_Flex_Ext	L1_L2_Lat_Bending	L1_L2_axial_rotation	L1_T12_Flex_Ext	L1_T12_Lat_Bending	L1_T12_axial_rotation	Abs_r3	Abs_r2	Abs_r1	Abs_t1	Abs_t2	neck_flexion	neck_bending	neck_rotation	arm_flex_r	arm_add_r	arm_rot_r	elbow_flex_r	pro_sup_r	wrist_flex_r	wrist_dev_r	arm_flex_l	arm_add_l	arm_rot_l	elbow_flex_l	pro_sup_l	wrist_flex_l	wrist_dev_l
      6.03333333	    103.43544054	      1.83760971	      2.77921889	     -0.78572399	      0.28129484	     -0.23870599	    -11.86834843	    -14.17484078	    -10.35451656	     25.74401122	      0.44931776	    -39.19648329	    -17.10994904	      0.00000000	    -10.34938477	    -16.41691381	    -14.57309881	     22.20534937	      0.38755646	    -43.75739553	    -17.69697975	      0.00000000	     -4.60875945	     -0.37178248	      0.32676150	     -8.55892718	     -0.49447069	      0.34718410	     -7.57173090	     -0.90395191	      0.34718410	     -5.26735118	     -0.90395191	      0.28591631	     -4.27969403	     -0.75813882	      0.26549372	     -2.63344515	     -0.57589105	      0.24507113	    -32.91990788	     -4.20567771	      1.81734945	      0.00000000	      0.00000000	     -4.42369567	      5.54891635	    -10.48910521	    -53.69712650	    -45.20092312	   -115.16910596	     31.42403787	     89.99559364	      0.00000000	      0.00000000	    -82.72418344	    -56.48796369	    -76.30320972	     49.25222702	     89.99559364	      0.00000000	      0.00000000
      6.06666667	    102.42774057	      2.08870680	      3.17660040	     -0.78369567	      0.28088282	     -0.23922703	    -10.52647479	    -14.48374690	    -10.41344246	     26.58578879	      0.46400955	    -38.60215479	    -17.23082612	      0.00000000	     -8.78814418	    -16.20426318	    -13.76172091	     22.79860285	      0.39791068	    -43.53567157	    -17.90916357	      0.00000000	     -4.44167709	     -0.39888877	      0.22318686	     -8.24863852	     -0.53052206	      0.23713604	     -7.29723129	     -0.96985815	      0.23713604	     -5.07639274	     -0.96985815	      0.19528851	     -4.12454134	     -0.81341398	      0.18133933	     -2.53797429	     -0.61787870	      0.16739015	    -31.72645527	     -4.51230953	      1.24129838	      0.00000000	      0.00000000	     -4.60665463	      5.71077027	    -10.34459046	    -53.81657103	    -45.25320473	   -115.05705721	     31.37290372	     89.99559364	      0.00000000	      0.00000000	    -83.26827118	    -56.34609427	    -76.53970197	     49.23256331	     89.99559364	      0.00000000	      0.00000000
      6.10000000	    102.43264776	      2.08690074	      3.17052215	     -0.78363725	      0.28084371	     -0.23922983	    -10.52630606	    -14.48239109	    -10.41214953	     26.58829614	      0.46405331	    -38.60209554	    -17.21020478	      0.00000000	     -8.79104243	    -16.20595970	    -13.75990931	     22.80070648	      0.39794740	    -43.53625441	    -17.88110149	      0.00000000	     -4.44072809	     -0.39939751	      0.22134784	     -8.24687613	     -0.53119869	      0.23518208	     -7.29567218	     -0.97109510	      0.23518208	     -5.07530813	     -0.97109510	      0.19367936	     -4.12366010	     -0.81445140	      0.17984512	     -2.53743203	     -0.61866674	      0.16601088	    -31.71967666	     -4.51806449	      1.23107026	      0.00000000	      0.00000000	     -4.60526708	      5.71080746	    -10.34398981	    -53.82271558	    -45.25391263	   -115.05967360	     31.37489109	     89.99559364	      0.00000000	      0.00000000	    -83.26781863	    -56.34770391	    -76.53976493	     49.23303968	     89.99559364	      0.00000000	      0.00000000
      6.13333333	    102.44229479	      2.11023115	      3.23710975	     -0.78325867	      0.28167519	     -0.23954502	    -10.56639805	    -14.49614206	    -10.35535194	     26.72210421	      0.46638870	    -38.50142207	    -17.28109567	      0.00000000	     -8.85252921	    -16.19388053	    -13.74393730	     22.79237843	      0.39780205	    -43.48053429	    -17.87330820	      0.00000000	     -4.42331538	     -0.39845576	      0.19517284	     -8.21453900	     -0.52994616	      0.20737114	     -7.26706484	     -0.96880534	      0.20737114	     -5.05540715	     -0.96880534	      0.17077624	     -4.10749066	     -0.81253099	      0.15857793	     -2.52748241	     -0.61720797	      0.14637963	    -31.59529945	     -4.50741127	      1.08549279	      0.00000000	      0.00000000	     -4.60322531	      5.72093949	    -10.32451871	    -54.06628155	    -45.36076048	   -115.15799231	     31.38068692	     89.99559364	      0.00000000	      0.00000000	    -83.34082304	    -56.22867761	    -76.57957105	     49.14400611	     89.99559364	      0.00000000	      0.00000000
      6.16666667	    102.44695321	      2.10999246	      3.23554323	     -0.78322889	      0.28165230	     -0.23956691	    -10.56641904	    -14.49567134	    -10.35399022	     26.72476941	      0.46643522	    -38.49930814	    -17.26646852	      0.00000000	     -8.85436039	    -16.19432436	    -13.74222204	     22.79363089	      0.39782391	    -43.47930910	    -17.85282556	      0.00000000	     -4.42253026	     -0.39855516	      0.19422725	     -8.21308095	     -0.53007836	      0.20636645	     -7.26577497	     -0.96904702	      0.20636645	     -5.05450984	     -0.96904702	      0.16994884	     -4.10676160	     -0.81273368	      0.15780964	     -2.52703379	     -0.61736194	      0.14567044	    -31.58969142	     -4.50853568	      1.08023369	      0.00000000	      0.00000000	     -4.60239968	      5.72085300	    -10.32365365	    -54.06747632	    -45.36156515	   -115.15830160	     31.38154417	     89.99559364	      0.00000000	      0.00000000	    -83.34043491	    -56.23119183	    -76.57973291	     49.14480924	     89.99559364	      0.00000000	      0.00000000
      6.20000000	    102.45208312	      2.10913997	      3.23665130	     -0.78321617	      0.28167093	     -0.23958196	    -10.56860562	    -14.49489228	    -10.35167385	     26.73057188	      0.46653649	    -38.49581401	    -17.25074083	      0.00000000	     -8.85800065	    -16.19427724	    -13.73963834	     22.79493766	      0.39784671	    -43.47753317	    -17.82866067	      0.00000000	     -4.42109627	     -0.39853785	      0.19287599	     -8.21041787	     -0.53005534	      0.20493074	     -7.26341905	     -0.96900492	      0.20493074	     -5.05287092	     -0.96900492	      0.16876649	     -4.10542999	     -0.81269838	      0.15671174	     -2.52621441	     -0.61733513	      0.14465699	    -31.57944851	     -4.50833984	      1.07271838	      0.00000000	      0.00000000	     -4.60098261	      5.72111677	    -10.32277858	    -54.07216653	    -45.36710784	   -115.15946349	     31.38317479	     89.99559364	      0.00000000	      0.00000000	    -83.34064381	    -56.23351586	    -76.58071741	     49.14502649	     89.99559364	      0.00000000	      0.00000000
      6.23333333	    102.47945586	      2.12950729	      3.38104692	     -0.78286053	      0.28240106	     -0.24006485	    -10.57741478	    -14.48086002	    -10.24047418	     27.01384232	      0.47148049	    -38.29033467	    -17.46469463	      0.00000000	     -8.93660600	    -16.17223450	    -13.59890898	     22.72028684	      0.39654381	    -43.33606193	    -17.75828398	      0.00000000	     -4.40948718	     -0.39336905	      0.15516601	     -8.18885864	     -0.52318084	      0.16486388	     -7.24434648	     -0.95643751	      0.16486388	     -5.03960289	     -0.95643751	      0.13577026	     -4.09464979	     -0.80215817	      0.12607238	     -2.51958097	     -0.60932866	      0.11637451	    -31.49652595	     -4.44986937	      0.86298679	      0.00000000	      0.00000000	     -4.63627063	      5.74334471	    -10.28135345	    -54.31480659	    -45.50853469	   -115.22722383	     31.33462409	     89.99559364	      0.00000000	      0.00000000	    -83.39840890	    -56.12352343	    -76.61660675	     49.05579544	     89.99559364	      0.00000000	      0.00000000
      6.26666667	    101.76167390	      2.49211153	      3.50840389	     -0.78183830	      0.28093744	     -0.24018612	     -9.43633166	    -14.92085315	    -10.03159334	     27.71209687	      0.48366733	    -38.01730037	    -17.74365743	      0.00000000	     -7.84665028	    -15.68999188	    -12.81822222	     22.98600136	      0.40118141	    -43.36048310	    -17.86526834	      0.00000000	     -4.31687074	     -0.44085416	      0.10522771	     -8.01686064	     -0.58633603	      0.11180445	     -7.09218693	     -1.07189279	      0.11180445	     -4.93375156	     -1.07189279	      0.09207425	     -4.00864616	     -0.89898979	      0.08549752	     -2.46665994	     -0.68288309	      0.07892079	    -30.83497597	     -4.98703038	      0.58524498	      0.00000000	      0.00000000	     -4.61084526	      5.96947998	    -10.29799062	    -54.05850948	    -45.44940983	   -114.85602013	     31.29614765	     89.99559364	      0.00000000	      0.00000000	    -83.80132115	    -56.14378721	    -76.93179560	     49.05289646	     89.99559364	      0.00000000	      0.00000000
      6.30000000	    101.76569068	      2.48912774	      3.51108658	     -0.78184882	      0.28093917	     -0.24024448	     -9.43660464	    -14.91887332	    -10.02979959	     27.71672589	      0.48374812	    -38.01716006	    -17.73534820	      0.00000000	     -7.84188182	    -15.68023971	    -12.81621498	     22.98303926	      0.40112971	    -43.36069967	    -17.84828665	      0.00000000	     -4.31714221	     -0.44016469	      0.10559091	     -8.01736480	     -0.58541904	      0.11219035	     -7.09263294	     -1.07021643	      0.11219035	     -4.93406183	     -1.07021643	      0.09239205	     -4.00889826	     -0.89758384	      0.08579262	     -2.46681506	     -0.68181511	      0.07919319	    -30.83691510	     -4.97923101	      0.58726499	      0.00000000	      0.00000000	     -4.61200300	      5.97075683	    -10.29842540	    -54.06082300	    -45.45273415	   -114.85774018	     31.29812430	     89.99559364	      0.00000000	      0.00000000	    -83.80150222	    -56.14210856	    -76.93263141	     49.05148124	     89.99559364	      0.00000000	      0.00000000
